<svg width="27" height="27" viewBox="0 0 27 27" fill="none" xmlns="http://www.w3.org/2000/svg">
<path d="M13.5 2.25C7.29 2.25 2.25 7.29 2.25 13.5C2.25 19.71 7.29 24.75 13.5 24.75C19.71 24.75 24.75 19.71 24.75 13.5C24.75 7.29 19.71 2.25 13.5 2.25ZM13.5 6.75C15.6713 6.75 17.4375 8.51625 17.4375 10.6875C17.4375 12.8588 15.6713 14.625 13.5 14.625C11.3287 14.625 9.5625 12.8588 9.5625 10.6875C9.5625 8.51625 11.3287 6.75 13.5 6.75ZM13.5 22.5C11.2163 22.5 8.51625 21.5775 6.5925 19.26C8.56306 17.7139 10.9953 16.8737 13.5 16.8737C16.0047 16.8737 18.4369 17.7139 20.4075 19.26C18.4837 21.5775 15.7837 22.5 13.5 22.5Z" fill="white"/>
</svg>
