<svg width="51" height="46" viewBox="0 0 51 46" fill="none" xmlns="http://www.w3.org/2000/svg">
<g clip-path="url(#clip0_771_7)">
<path d="M42.7756 8.77991C39.4996 7.42581 36.0425 6.46024 32.4907 5.90737C32.4582 5.90169 32.4247 5.90542 32.3948 5.91803C32.3649 5.93064 32.3402 5.95147 32.3243 5.97753C31.8822 6.68855 31.3895 7.61572 31.0442 8.3476C27.2154 7.82388 23.3207 7.82388 19.4919 8.3476C19.1076 7.53666 18.6739 6.74543 18.1928 5.97753C18.1762 5.95206 18.1515 5.93172 18.1218 5.91919C18.0921 5.90667 18.0589 5.90255 18.0265 5.90737C14.4744 6.45909 11.0171 7.42471 7.74161 8.77991C7.71388 8.79038 7.69037 8.80824 7.67424 8.8311C1.12222 17.6459 -0.673694 26.2426 0.20847 34.7313C0.210613 34.7524 0.217507 34.7728 0.22873 34.7914C0.239952 34.81 0.255267 34.8263 0.273738 34.8394C4.08788 37.3843 8.35452 39.327 12.8914 40.5844C12.9234 40.5928 12.9575 40.5922 12.989 40.5827C13.0206 40.5732 13.0483 40.5553 13.0683 40.5314C14.0436 39.3378 14.907 38.0732 15.6495 36.7506C15.6599 36.7325 15.6658 36.7126 15.667 36.6923C15.6682 36.672 15.6646 36.6516 15.6565 36.6327C15.6483 36.6137 15.6358 36.5964 15.6197 36.5821C15.6036 36.5678 15.5844 36.5567 15.5632 36.5496C14.2019 36.0805 12.884 35.515 11.6219 34.8583C11.5987 34.8463 11.5793 34.8293 11.5652 34.8088C11.5511 34.7884 11.5429 34.7651 11.5412 34.7411C11.5396 34.717 11.5445 34.693 11.5556 34.6711C11.5668 34.6493 11.5837 34.6302 11.605 34.6156C11.8708 34.4366 12.132 34.252 12.3882 34.062C12.4107 34.0456 12.4377 34.0352 12.4663 34.0318C12.4949 34.0285 12.524 34.0324 12.5504 34.043C20.8204 37.4427 29.7726 37.4427 37.9458 34.043C37.9723 34.032 38.0019 34.0279 38.0309 34.0312C38.0599 34.0346 38.0873 34.0453 38.11 34.062C38.3626 34.2478 38.6279 34.4374 38.8953 34.6156C38.9163 34.63 38.9332 34.6487 38.9444 34.6702C38.9556 34.6917 38.9608 34.7153 38.9595 34.739C38.9583 34.7628 38.9506 34.7859 38.9372 34.8063C38.9238 34.8268 38.9051 34.844 38.8827 34.8564C37.6234 35.5192 36.3043 36.085 34.9392 36.5477C34.918 36.5551 34.8987 36.5663 34.8826 36.5808C34.8665 36.5953 34.854 36.6127 34.8458 36.6318C34.8377 36.651 34.8341 36.6714 34.8353 36.6919C34.8366 36.7124 34.8425 36.7324 34.8529 36.7506C35.6109 38.0741 36.4783 39.333 37.432 40.5295C37.4517 40.5538 37.4793 40.5721 37.511 40.5816C37.5427 40.5911 37.577 40.5915 37.6089 40.5826C42.1534 39.329 46.427 37.386 50.2455 34.8375C50.2641 34.8256 50.2797 34.8104 50.2913 34.7928C50.3029 34.7751 50.3103 34.7555 50.3129 34.7351C51.3656 24.9192 48.5486 16.3926 42.8408 8.83489C42.8275 8.80941 42.8043 8.78918 42.7756 8.77801V8.77991ZM16.8854 29.5607C14.3947 29.5607 12.344 27.5035 12.344 24.9742C12.344 22.4467 14.3568 20.3876 16.8854 20.3876C19.4329 20.3876 21.4667 22.4657 21.4267 24.9761C21.4267 27.5035 19.414 29.5607 16.8854 29.5607ZM33.676 29.5607C31.1853 29.5607 29.1346 27.5035 29.1346 24.9742C29.1346 22.4467 31.1453 20.3876 33.676 20.3876C36.2235 20.3876 38.2574 22.4657 38.2174 24.9761C38.2174 27.5035 36.2256 29.5607 33.676 29.5607Z" fill="white"/>
</g>
<defs>
<clipPath id="clip0_771_7">
<rect width="50.5297" height="45.5055" fill="white" transform="translate(0 0.494141)"/>
</clipPath>
</defs>
</svg>
