<svg width="109" height="106" viewBox="0 0 109 106" fill="none" xmlns="http://www.w3.org/2000/svg">
<path d="M9.90262 0C2.65651 0 0 2.24246 0 8.29742V81.4439C0 82.1361 0.0434844 82.7721 0.106735 83.3617C0.292532 84.6899 0.292532 85.9851 1.77101 87.4326C1.91332 87.6048 3.3997 88.519 3.3997 88.519C4.20219 88.8469 4.75563 89.0887 5.6609 89.3968L49.6001 104.819C51.8652 105.684 52.8377 106.048 54.4822 105.995H54.502C56.1662 106.048 57.1387 105.687 59.4039 104.819L103.319 89.3968C104.248 89.0887 104.778 88.8436 105.6 88.519C105.6 88.519 107.087 87.5684 107.229 87.4326C108.711 85.9851 108.711 84.6899 108.893 83.3617C108.957 82.7754 109 82.1395 109 81.4637V8.30073C109 2.24577 106.324 0.00331234 99.0974 0.00331234L9.90262 0ZM80.3002 13.7297H83.8778C89.851 13.7297 92.7763 16.1642 92.7763 21.2387V29.5361H85.5302V21.5633C85.5302 19.9436 84.6447 19.2016 82.7669 19.2016H81.5336C79.6005 19.2016 78.715 19.9436 78.715 21.5633V47.2307C78.715 48.8504 79.6005 49.5924 81.5336 49.5924H82.9132C84.7633 49.5924 85.6488 48.8504 85.6488 47.2307V38.0522H92.8949V47.5255C92.8949 52.5768 89.934 55.0644 83.941 55.0644H80.3002C74.2875 55.0644 71.3384 52.5602 71.3384 47.5255V21.2818C71.3384 16.2305 74.2835 13.7263 80.3002 13.7263V13.7297ZM16.0577 14.0808H32.4672V19.7217H23.4263V31.2089H32.139V36.8366H23.4263V49.0823H32.5937V54.7265H16.0577V14.0808ZM36.1713 14.0808H47.7461C53.7351 14.0808 56.6999 16.5816 56.6999 21.6329V32.4344C56.6999 37.4858 53.7311 39.9733 47.7461 39.9733H43.5676V54.7232H36.1713V14.0808ZM60.0364 14.0808H67.405V54.7265H60.0364V14.0808ZM43.5439 19.5461V34.5179H46.5917C48.4458 34.5179 49.3313 33.7627 49.3313 32.1363V21.9244C49.3313 20.3047 48.4458 19.5428 46.5917 19.5428L43.5439 19.5461ZM23.2208 64.382H24.3118L24.5609 64.4184H24.9562L25.1618 64.4714H25.3673L25.5531 64.5211L25.7587 64.5575L25.9208 64.594L26.2884 64.6635L26.4979 64.7132L26.6402 64.7497L26.8023 64.8027L27.0079 64.8557L27.1502 64.9053L27.3597 64.9749L27.5455 65.0444L27.7076 65.1273L27.8934 65.1968L28.0357 65.2796L28.2452 65.3691L28.4073 65.4519L28.5694 65.5214L28.7314 65.6241L28.9014 65.7135L29.0437 65.8162L29.5379 66.1309L29.4114 66.2667L29.2691 66.3859L29.1426 66.5085L29.0003 66.6443L28.9014 66.7636L28.7749 66.8861L28.6326 67.0054L28.5061 67.1412L28.4073 67.2604L28.261 67.4028L28.1385 67.5221L27.9962 67.6579L27.8697 67.7804L27.7708 67.9163L27.6246 68.0355L27.502 68.1779L27.3597 68.2972L27.2332 68.4164L27.0909 68.3336L26.9288 68.2111L26.7588 68.1283L26.4544 67.956L26.2686 67.8666L26.0986 67.7838L25.9129 67.6943L25.7705 67.6248L25.6085 67.5585L25.2764 67.4525L25.0708 67.4227L24.9088 67.3863L24.723 67.3498L24.5134 67.3134L24.3079 67.2968H24.1023L23.8612 67.2604H23.4659L23.2603 67.277H23.0547L22.8492 67.33L22.6871 67.3664L22.5013 67.4194L22.3155 67.4492L22.1455 67.5188L21.9399 67.5883L21.6553 67.7606L21.4853 67.8434L21.343 67.9494L21.2007 68.0322L21.0544 68.1382L20.9556 68.2574L20.7856 68.3767L20.5801 68.6185L20.4812 68.7543L20.3982 68.91L20.2994 69.0325L20.1927 69.1882L20.1294 69.3439L20.0503 69.4797L19.9871 69.6519L19.9673 69.8242L19.908 69.9832L19.8645 70.1554V70.3276L19.8448 70.4999V70.8974L19.8645 71.0696V71.2054L19.8843 71.3776L19.9199 71.5333L19.9831 71.6691L20.0029 71.8447L20.0662 71.9805L20.1254 72.0997L20.2085 72.272L20.3152 72.4442L20.3943 72.5668L20.5998 72.8417L20.7263 72.9775L20.8252 73.1001L20.9951 73.2028L21.094 73.322L21.2363 73.428L21.5683 73.6367L21.7107 73.7029L21.8727 73.7924L22.0625 73.8619L22.2681 73.9282L22.4104 73.9977L22.8215 74.1004L23.0073 74.117L23.2129 74.17L23.4184 74.1865H24.3039L24.553 74.17H24.7388L24.9483 74.1004L25.1538 74.0838L25.3594 74.0341L25.5215 73.9977L25.7073 73.9282L25.8694 73.8619L26.0552 73.7924L26.1817 73.7228L26.3437 73.64V72.1031H23.4382V69.6387H30.0044V75.1603L29.862 75.2431L29.7197 75.3458L29.5735 75.4353L29.4114 75.538L29.2493 75.6075L29.107 75.7135L28.7749 75.8857L28.5694 75.9686L28.2413 76.1408L28.0317 76.2104L27.8697 76.2766L27.6839 76.3462L27.2727 76.482L27.1107 76.5515L26.7351 76.6542L26.5493 76.6906L26.3635 76.7436L26.1579 76.7966L25.9959 76.8265L25.3792 76.9324L25.1894 76.949L24.7783 76.9855L24.553 77.002L24.3474 77.0153L24.1221 77.0318H23.0943L22.8887 77.002H22.6831L22.4776 76.9656H22.2918L22.0862 76.9126L21.4853 76.8099L21.3233 76.7569L21.1375 76.7403L20.9319 76.6708L20.5563 76.5681L20.1887 76.4323L19.9831 76.3627L19.8408 76.2932L19.6353 76.2269L19.489 76.1209L19.2834 76.0547L19.1609 75.9652L18.9988 75.8824L18.6667 75.6738L18.5047 75.5843L18.3782 75.4816L18.2161 75.3756L17.9473 75.1537L17.805 75.0477L17.6824 74.9285L17.5361 74.8059L17.4373 74.6701L17.3108 74.5674L17.212 74.425L17.0855 74.2892L16.9867 74.17L16.8799 74.0341L16.7811 73.8752L16.6981 73.7393L16.6151 73.5837L16.536 73.4479L16.3739 73.1332L16.3107 73.0139L16.2276 72.8583L16.1842 72.7026L16.1486 72.5668L16.1051 72.3945L16.0419 72.2355L15.9984 72.0633L15.9786 71.9275L15.943 71.7553L15.8995 71.4472L15.8561 71.1027V70.1885L15.8995 70.013V69.8407L15.9628 69.6685V69.4962L16.0221 69.3406L16.0853 69.1683L16.1684 68.8603L16.2276 68.688L16.2909 68.5323L16.5399 68.0653L16.619 67.9295L16.702 67.7738L16.8088 67.6148L16.8878 67.479L16.9946 67.3598L17.2001 67.0815L17.3227 66.9457L17.4492 66.8265L17.548 66.6907L17.8168 66.4654L17.9394 66.3429L18.0856 66.2236L18.2082 66.1044L18.3782 65.9984L18.6628 65.7897L18.8249 65.687L18.9949 65.5976L19.1372 65.4949L19.2992 65.4055L19.4692 65.3392L19.655 65.2498L19.8606 65.167L20.0029 65.0776L20.2085 65.0113L20.3943 64.9418L20.5801 64.859L20.75 64.8225L20.9556 64.7695L21.1177 64.7L21.3035 64.6702L21.4893 64.6172L21.6948 64.5807L21.8648 64.5277L22.0704 64.4913H22.276L22.4618 64.4416H22.6673L22.8729 64.4052H23.0587L23.2208 64.382ZM86.4117 64.4184H87.5028L87.7519 64.4549H88.1432L88.3488 64.5045H88.5741L88.7797 64.5575L89.1473 64.6271L89.3529 64.6635L89.5387 64.6933L89.7482 64.7463L89.934 64.7993L90.0961 64.8358L90.2819 64.8855L90.4874 64.9385L90.6495 65.008L90.8551 65.0743L91.0448 65.1438L91.2306 65.2333L91.3729 65.2995L91.5587 65.3889L91.7445 65.4552L91.9145 65.5446L92.1003 65.6473L92.2426 65.7367L92.5747 65.9454L92.7368 66.0282L92.6103 66.164L92.5114 66.3065L92.3889 66.4257L92.2624 66.5615L92.1636 66.7172L92.0568 66.8596L91.9343 66.9789L91.8078 67.1147L91.709 67.2571L91.5825 67.3929L91.4836 67.5121L91.3571 67.648L91.2583 67.8069L91.1318 67.9427L91.0092 68.062L90.8828 68.1978L90.7839 68.3402L90.6218 68.2342L90.4321 68.1514L90.2898 68.062L90.1277 67.9792L89.9419 67.9096L89.7719 67.8202L89.5861 67.754L89.4438 67.6844L89.2382 67.6181L89.092 67.5486L88.9299 67.4956L88.5623 67.3929L88.1511 67.2869L87.5344 67.1842L87.3289 67.1677L86.9533 67.1312H86.5224L86.2971 67.1677L86.0915 67.2041L85.9057 67.2405L85.7437 67.3068L85.5974 67.3763L85.4353 67.4956L85.3128 67.6513L85.2298 67.8103V68.221L85.3365 68.4098L85.4156 68.5158L85.5421 68.6185L85.7476 68.7079L85.9097 68.7907L86.0955 68.8603L86.3011 68.9265L86.5699 68.9795L86.7122 69.0325L86.8822 69.0689L87.0877 69.1054L87.2498 69.1551L87.4356 69.1915L87.6609 69.2445L87.8665 69.2975L88.0918 69.3472L88.3172 69.3836L88.503 69.4366L88.7283 69.4863L88.9338 69.5227L89.1196 69.5592L89.7403 69.7149L89.9024 69.7679L90.1079 69.8209L90.2937 69.8871L90.4993 69.9765L90.9104 70.1123L91.0962 70.2018L91.4283 70.374L91.7327 70.5628L91.9224 70.6655L92.0647 70.7847L92.207 70.9272L92.3533 71.0464L92.4521 71.1657L92.5984 71.3379L92.6972 71.4605L92.7803 71.6327L92.8593 71.7354L92.9226 71.9076L92.9858 72.0501L93.0293 72.2057L93.1084 72.5502L93.1281 72.7225L93.1479 72.8781V73.2922L93.1281 73.481L93.0846 73.8255L93.0412 73.9977L92.9819 74.1534L92.9384 74.3256L92.8751 74.4979L92.8158 74.6536L92.7328 74.7761L92.6498 74.9318L92.551 75.0676L92.4245 75.1902L92.2189 75.4651L91.9699 75.7069L91.8276 75.7897L91.6655 75.9122L91.539 76.0149L91.3769 76.1176L91.2148 76.1872L91.0527 76.2932L90.863 76.376L90.4953 76.5317L90.2898 76.6012L90.104 76.6675L89.8984 76.7205L89.7126 76.7735L89.5426 76.8099L89.1315 76.8761L88.9892 76.9126L88.7836 76.949H88.5781L88.3923 76.9855H88.1867L87.9811 77.0219H86.5145L85.8978 76.9689L85.6923 76.9324L85.5065 76.9159L85.0953 76.8496L84.87 76.8132L84.6842 76.7768L84.4787 76.7238L84.2691 76.6873L84.0833 76.6376L83.8778 76.5847L83.6722 76.5151L83.5101 76.4654L83.3046 76.4124L83.099 76.3428L82.9527 76.2766L82.7472 76.2236L82.5851 76.1342L82.3795 76.0679L82.2175 75.9785L82.0712 75.8957L81.8656 75.8063L81.7233 75.74L81.5612 75.634L81.3992 75.5512L81.2292 75.4452L81.0869 75.3425L80.9248 75.2365L80.7785 75.1537L80.6164 75.0312L80.7429 74.8954L80.8852 74.7761L81.0078 74.6536L81.1541 74.5178L81.2529 74.3985L81.3794 74.2627L81.5217 74.1401L81.6443 74.0209L81.7905 73.8851L81.8894 73.7625L82.0356 73.6433L82.1582 73.5075L82.2847 73.3849L82.427 73.2491L82.5258 73.1299L82.6721 73.0073L82.8144 72.8715L82.9567 72.9775L83.1464 73.0802L83.2888 73.1829L83.4943 73.2723L83.6366 73.3617L83.8224 73.4644L83.9924 73.5539L84.1782 73.6201L84.3205 73.7095L84.5063 73.7592L84.7119 73.8288L84.8819 73.8983L85.0677 73.948L85.2298 74.0176L85.4353 74.0706L85.6211 74.1203L85.8267 74.1733L86.0322 74.1898L86.222 74.2428L86.4276 74.2594H86.6529L86.8387 74.3091H87.9495L88.1353 74.2793L88.3409 74.2428L88.4832 74.2263L88.6532 74.1733L88.7955 74.107L88.9813 74.001L89.088 73.8818L89.1671 73.746L89.2303 73.587V73.1895L89.1473 73.0338L89.0485 72.898L88.922 72.7953L88.7362 72.6893L88.5939 72.6397L88.4081 72.5701L88.2025 72.5005L87.9772 72.4177L87.8309 72.3813L87.6688 72.3449L87.4633 72.2919L87.321 72.262L87.1154 72.209L86.9098 72.1925L86.7003 72.1229L86.4948 72.1064L86.2694 72.0567L86.0836 72.0202L85.8781 71.9672L85.6725 71.9308L85.4669 71.8811L85.2811 71.8281L85.0756 71.7917L84.9135 71.7387L84.538 71.636L84.3324 71.5665L84.1268 71.5168L83.7157 71.3743L83.5299 71.2915L83.3243 71.2021L83.182 71.1193L82.9923 71.0299L82.85 70.9471L82.6642 70.8576L82.3953 70.6324L82.253 70.5297L82.004 70.2879L81.8973 70.1686L81.8182 70.0494L81.6917 69.8904L81.6324 69.7712L81.4426 69.3571L81.4071 69.1849L81.3636 69.0292V68.8735L81.3201 68.7013V67.9958L81.3636 67.6513L81.4071 67.5088L81.4426 67.3532L81.5059 67.2173L81.5494 67.0451L81.6324 66.9259L81.7115 66.7503L81.7945 66.6145L81.8735 66.4423L81.9803 66.323L82.1226 66.1872L82.2293 66.0448L82.3914 65.9255L82.5139 65.8063L82.6404 65.6639L82.8262 65.5446L82.9527 65.4552L83.1148 65.3525L83.4429 65.1803L83.6287 65.0908L84.0043 64.9352L84.1664 64.8855L84.3522 64.8325L84.5577 64.7629L84.7633 64.7132L84.9096 64.6768L85.0953 64.6403L85.2574 64.6039L85.4432 64.5675L85.6488 64.531L86.0599 64.5012L86.2497 64.4847L86.4117 64.4184ZM37.7169 64.5377H41.4447L41.6147 64.8523L41.6938 64.9881L41.757 65.1604L41.8401 65.3161L41.8994 65.4519L42.0061 65.6076L42.1286 65.9222L42.2354 66.0779L42.3975 66.3859L42.4409 66.5218L42.7691 67.1445L42.8323 67.3002L42.9153 67.4426L43.0141 67.5983L43.0576 67.754L43.1644 67.9262L43.1999 68.0819L43.3897 68.3899L43.4688 68.5125L43.5518 68.6847L43.615 68.857L43.6743 68.9762L43.7811 69.1484L43.8443 69.2909L43.9234 69.4631L43.9866 69.5824L44.0696 69.7546L44.2554 70.0627L44.3147 70.2183L44.3582 70.3773L44.4412 70.533L44.5401 70.6688L44.6231 70.841L44.7061 70.9967L44.7654 71.1325L44.9354 71.4472L44.9947 71.6029L45.0777 71.7586L45.1409 71.9143L45.22 72.0501L45.3267 72.209L45.4058 72.3647L45.4888 72.5005L45.5323 72.6728L45.6944 72.9808L45.7774 73.1233L45.8367 73.2789L46.0067 73.587L46.1055 73.7592L46.149 73.895L46.2557 74.0706L46.2913 74.1898L46.3743 74.3621L46.4811 74.5343L46.5601 74.6536L46.6234 74.8258L46.7064 74.9682L46.7657 75.1405L46.8724 75.2597L46.995 75.6042L47.078 75.7268L47.157 75.899L47.2638 76.0348L47.3468 76.207L47.3824 76.3627L47.4456 76.4985L47.5286 76.6542L47.6275 76.7966H43.5122L43.4134 76.6542L43.3502 76.4985L43.2671 76.3428L43.1881 76.1706L43.1446 76.0348L42.9746 75.7268L42.9153 75.5843L42.7532 75.2763L42.69 75.1405L42.607 74.9682L42.4844 74.6536L42.4014 74.5178H36.6773L36.5982 74.6734L36.5349 74.8159L36.4519 74.9881L36.3729 75.1438L36.3294 75.2796L36.2464 75.4518L36.1673 75.5876L36.1041 75.7433L36.021 75.8857L35.942 76.058L35.8787 76.1772L35.7957 76.3495L35.7364 76.5217L35.6534 76.6443L35.5901 76.8165H31.5145L31.5738 76.6575L31.7437 76.3495L31.803 76.1772L31.8663 76.0414L31.973 75.8857L32.0521 75.7301L32.1351 75.5876L32.1786 75.432L32.2576 75.2597L32.3644 75.1239L32.4434 74.9682L32.5699 74.6536L32.7557 74.3455L32.819 74.1898L32.8981 74.054L32.9613 73.895L33.2104 73.4313L33.2934 73.2591L33.3527 73.1233L33.4159 72.9676L33.5227 72.8251L33.6017 72.6529L33.665 72.4972L33.7282 72.3614L33.8073 72.1892L33.914 72.0666L33.9773 71.8944L34.0563 71.7586L34.1196 71.6029L34.2026 71.4306L34.3014 71.2948L34.3647 71.1226L34.4437 71L34.507 70.8278L34.59 70.6556L34.6691 70.5363L34.7521 70.3641L34.8153 70.2216L34.8944 70.0494L34.9576 69.9302L35.0644 69.7579L35.1434 69.5857L35.2265 69.4499L35.2699 69.2942L35.349 69.1352L35.4557 68.9795L35.5348 68.8437L35.5783 68.6715L35.6613 68.5158L35.7443 68.3734L35.9064 68.0653L35.9657 67.9295L36.1357 67.585L36.2147 67.4625L36.2978 67.2902L36.361 67.1544L36.4203 66.9822L36.5033 66.8265L36.6101 66.6907L36.6891 66.5184L36.7524 66.3959L36.8156 66.2236L36.8947 66.0878L37.0014 65.9322L37.0647 65.7599L37.124 65.6175L37.207 65.4452L37.286 65.326L37.3928 65.1538L37.456 64.9815L37.5153 64.8623L37.5983 64.69L37.7169 64.5377ZM49.2917 64.6271H53.3674L53.4939 64.7629L53.6995 65.0411L53.7983 65.1968L53.9051 65.3161L54.0039 65.4717L54.1106 65.6076L54.2094 65.7665L54.3162 65.9024L54.415 66.0216L54.5217 66.1773L54.6206 66.3197L54.7668 66.4555L54.8261 66.5913L54.9526 66.747L55.0515 66.8894L55.178 67.0087L55.261 67.1644L55.3598 67.3002L55.4863 67.4426L55.5456 67.5784L55.6919 67.7341L55.9963 68.1481L56.0793 68.2839L56.2018 68.4197L56.3086 68.5555L56.4074 68.7145L56.7197 69.1253L56.8185 69.2842L56.9253 69.4201L57.0478 69.2842L57.1308 69.1087L57.2534 68.9894L57.3601 68.8338L57.4589 68.7145L57.5419 68.5423L57.6843 68.4197L57.791 68.264L57.874 68.1448L57.9728 68.0024L58.0993 67.8467L58.1982 67.7275L58.3049 67.5552L58.4037 67.436L58.5302 67.277L58.6093 67.1577L58.716 66.9855L58.8149 66.8828L58.9216 66.7404L59.0441 66.5681L59.1509 66.4489L59.2299 66.2932L59.3564 66.1706L59.4553 65.9984L59.562 65.8957L59.6846 65.7599L59.7913 65.5877L59.8901 65.4651L59.9968 65.3094L60.0957 65.1902L60.2024 65.018L60.325 64.8954L60.408 64.7397L60.5147 64.6205H64.6536V76.9391H60.7796V69.6917L60.6807 69.8142L60.5542 69.9865L60.4554 70.0891L60.3289 70.225L60.2498 70.3972L60.1233 70.5198L60.0245 70.639L59.898 70.8112L59.6925 71.053L59.5699 71.1889L59.4632 71.3611L59.3406 71.4836L59.2339 71.6029L59.1548 71.7751L59.0283 71.8944L58.9295 72.0169L58.803 72.1892L58.7042 72.3084L58.5777 72.4442L58.4788 72.5999L58.3958 72.7225L58.2733 72.8583L58.1665 73.0139L58.044 73.1332L57.9175 73.2756L57.8384 73.4114L57.7317 73.5671L57.6091 73.6897L57.4826 73.8255L57.4036 73.9977L57.2573 74.1004L57.1783 74.2362L57.0518 74.4118L56.9529 74.531H56.8699L56.7474 74.3753L56.6406 74.2329L56.5418 74.0772L56.4351 73.958L56.3125 73.8023L56.2058 73.6665L56.0832 73.524L55.9765 73.3882L55.8777 73.2326L55.7709 73.1133L55.6286 72.9543L55.5456 72.8185L55.4231 72.6628L55.3163 72.5436L55.2175 72.3879L55.091 72.2455L54.9922 72.0732L54.8657 71.954L54.7668 71.7983L54.6601 71.6559L54.5613 71.5002L54.4348 71.381L54.3359 71.2253L54.2094 71.0895L54.1304 70.9471L54.0039 70.8112L53.9051 70.6556L53.7786 70.5363L53.6797 70.3773L53.5532 70.2415L53.4742 70.0858L53.3279 69.9666L53.2488 69.8076L53.1223 69.6718V76.9358H49.3155V64.7364L49.2917 64.6271ZM67.5711 64.6271H79.1656V67.4062H71.4214V69.3902H78.379V72.0136H71.4214V74.117H79.2645V76.9126H67.5908V64.7331L67.5711 64.6271ZM39.5275 68.4032L39.4642 68.5588L39.4049 68.7013L39.3219 68.8735L39.2389 69.0292L39.1796 69.1849L39.0096 69.4929L38.9305 69.6652L38.8673 69.8076L38.804 69.9798L38.725 70.0991L38.6617 70.2713L38.5787 70.4436L38.4997 70.5661L38.4364 70.7384L38.3573 70.8742L38.2941 71.0464L38.1874 71.2021L38.1439 71.3379L38.0648 71.5101L37.9818 71.6691L37.9185 71.8049L37.8395 71.9772H41.2352L41.1562 71.8049L41.0929 71.6493L40.9308 71.3346L40.8676 71.1789L40.7846 71.0431L40.7253 70.8709L40.6423 70.7152L40.579 70.5595L40.4999 70.4171L40.4367 70.2614L40.3537 70.0891L40.2944 69.9533L40.1244 69.6453L40.0888 69.4863L40.0058 69.3306L39.9228 69.1584L39.8635 69.0391L39.6935 68.6947L39.6342 68.539L39.5275 68.4032ZM33.4792 91.4703H75.7027L54.1501 97.4226L33.4792 91.4703Z" fill="white"/>
</svg>
