<svg width="30" height="30" viewBox="0 0 30 30" fill="none" xmlns="http://www.w3.org/2000/svg">
<path fill-rule="evenodd" clip-rule="evenodd" d="M5.71922 24.2808C8.18064 26.7422 11.519 28.125 15 28.125C18.481 28.125 21.8194 26.7422 24.2808 24.2808C26.7422 21.8194 28.125 18.481 28.125 15C28.125 11.519 26.7422 8.18064 24.2808 5.71922C21.8194 3.25781 18.481 1.875 15 1.875C11.519 1.875 8.18064 3.25781 5.71922 5.71922C3.25781 8.18064 1.875 11.519 1.875 15C1.875 18.481 3.25781 21.8194 5.71922 24.2808ZM25.6066 25.6066C22.7936 28.4196 18.9782 30 15 30C11.0218 30 7.20644 28.4196 4.3934 25.6066C1.58035 22.7936 0 18.9782 0 15C0 11.0218 1.58035 7.20644 4.3934 4.3934C7.20644 1.58035 11.0218 0 15 0C18.9782 0 22.7936 1.58035 25.6066 4.3934C28.4196 7.20644 30 11.0218 30 15C30 18.9782 28.4196 22.7936 25.6066 25.6066ZM13.3996 20.8996C13.2238 21.0754 13.125 21.3139 13.125 21.5625C13.125 21.8111 13.2238 22.0496 13.3996 22.2254C13.5754 22.4012 13.8139 22.5 14.0625 22.5H15.9375C16.1861 22.5 16.4246 22.4012 16.6004 22.2254C16.7762 22.0496 16.875 21.8111 16.875 21.5625C16.875 21.3139 16.7762 21.0754 16.6004 20.8996C16.4246 20.7238 16.1861 20.625 15.9375 20.625H14.0625C13.8139 20.625 13.5754 20.7238 13.3996 20.8996ZM9.64959 15.2746C9.47377 15.4504 9.375 15.6889 9.375 15.9375C9.375 16.1861 9.47377 16.4246 9.64959 16.6004C9.8254 16.7762 10.0639 16.875 10.3125 16.875H19.6875C19.9361 16.875 20.1746 16.7762 20.3504 16.6004C20.5262 16.4246 20.625 16.1861 20.625 15.9375C20.625 15.6889 20.5262 15.4504 20.3504 15.2746C20.1746 15.0988 19.9361 15 19.6875 15H10.3125C10.0639 15 9.8254 15.0988 9.64959 15.2746ZM5.89959 9.64959C5.72377 9.8254 5.625 10.0639 5.625 10.3125C5.625 10.5611 5.72377 10.7996 5.89959 10.9754C6.0754 11.1512 6.31386 11.25 6.5625 11.25H23.4375C23.6861 11.25 23.9246 11.1512 24.1004 10.9754C24.2762 10.7996 24.375 10.5611 24.375 10.3125C24.375 10.0639 24.2762 9.8254 24.1004 9.64959C23.9246 9.47377 23.6861 9.375 23.4375 9.375H6.5625C6.31386 9.375 6.0754 9.47377 5.89959 9.64959Z" fill="white"/>
</svg>
