<svg width="30" height="19" viewBox="0 0 30 19" fill="none" xmlns="http://www.w3.org/2000/svg">
<path d="M29.4478 14.9736L26.9941 4.05214C26.4377 1.91167 25.5497 0.285767 21.4675 0.285767H8.53024C4.38528 0.285767 3.56006 1.91167 3.00363 4.05214L0.554339 14.9736C0.114723 16.7835 0.832554 18.2227 2.65005 18.7829C4.46755 19.3431 5.89254 18.4811 6.90868 16.7995L7.87709 15.1804C7.96096 15.0404 8.08919 14.9226 8.24751 14.8404C8.40583 14.7582 8.58806 14.7147 8.77391 14.7147H21.2264C21.4122 14.7147 21.5944 14.7582 21.7528 14.8404C21.9111 14.9226 22.0393 15.0404 22.1232 15.1804L23.0916 16.7995C24.1052 18.4811 25.5333 19.3457 27.3502 18.7829C29.1671 18.2201 29.883 16.7835 29.4478 14.9736ZM13.4916 8.77337H10.4771V11.3196H8.46744V8.77337H5.45292V7.07585H8.46744V4.52957H10.4771V7.07585H13.4916V8.77337ZM17.7622 8.98556C17.5138 8.98556 17.2709 8.92333 17.0644 8.80676C16.8578 8.69018 16.6968 8.52448 16.6017 8.33062C16.5067 8.13675 16.4818 7.92343 16.5303 7.71763C16.5787 7.51182 16.6984 7.32278 16.874 7.1744C17.0497 7.02603 17.2735 6.92498 17.5171 6.88404C17.7608 6.84311 18.0133 6.86412 18.2429 6.94442C18.4724 7.02472 18.6685 7.1607 18.8065 7.33518C18.9446 7.50965 19.0182 7.71477 19.0182 7.92461C19.0182 8.20599 18.8859 8.47585 18.6503 8.67481C18.4148 8.87378 18.0953 8.98556 17.7622 8.98556ZM20.5255 11.3196C20.2771 11.3196 20.0342 11.2574 19.8277 11.1408C19.6211 11.0243 19.4601 10.8586 19.365 10.6647C19.27 10.4708 19.2451 10.2575 19.2936 10.0517C19.342 9.84591 19.4617 9.65687 19.6373 9.50849C19.813 9.36012 20.0368 9.25907 20.2804 9.21813C20.5241 9.1772 20.7766 9.19821 21.0062 9.27851C21.2357 9.35881 21.4318 9.49479 21.5699 9.66926C21.7079 9.84374 21.7815 10.0489 21.7815 10.2587C21.7815 10.5401 21.6492 10.8099 21.4136 11.0089C21.1781 11.2079 20.8586 11.3196 20.5255 11.3196ZM20.5255 6.65147C20.2771 6.65147 20.0342 6.58924 19.8277 6.47267C19.6211 6.35609 19.4601 6.19039 19.365 5.99653C19.27 5.80266 19.2451 5.58934 19.2936 5.38354C19.342 5.17773 19.4617 4.98869 19.6373 4.84031C19.813 4.69194 20.0368 4.59089 20.2804 4.54995C20.5241 4.50902 20.7766 4.53003 21.0062 4.61033C21.2357 4.69063 21.4318 4.82661 21.5699 5.00109C21.7079 5.17556 21.7815 5.38068 21.7815 5.59052C21.7815 5.8719 21.6492 6.14176 21.4136 6.34072C21.1781 6.53969 20.8586 6.65147 20.5255 6.65147ZM23.2888 8.98556C23.0404 8.98556 22.7975 8.92333 22.591 8.80676C22.3844 8.69018 22.2234 8.52448 22.1284 8.33062C22.0333 8.13675 22.0084 7.92343 22.0569 7.71763C22.1053 7.51182 22.225 7.32278 22.4006 7.1744C22.5763 7.02603 22.8001 6.92498 23.0437 6.88404C23.2874 6.84311 23.5399 6.86412 23.7695 6.94442C23.999 7.02472 24.1951 7.1607 24.3332 7.33518C24.4712 7.50965 24.5448 7.71477 24.5448 7.92461C24.5448 8.20599 24.4125 8.47585 24.177 8.67481C23.9414 8.87378 23.6219 8.98556 23.2888 8.98556Z" fill="current"/>
</svg>
