<svg width="30" height="30" viewBox="0 0 30 30" fill="none" xmlns="http://www.w3.org/2000/svg">
<path d="M26.9373 14.8007L15.2147 3.08661C15.1303 3.00204 15.03 2.93495 14.9197 2.88917C14.8093 2.84339 14.691 2.81982 14.5715 2.81982C14.452 2.81982 14.3337 2.84339 14.2233 2.88917C14.113 2.93495 14.0127 3.00204 13.9283 3.08661L2.2057 14.8007C1.86418 15.1422 1.67065 15.6061 1.67065 16.0899C1.67065 17.0945 2.48745 17.9113 3.49208 17.9113H4.72724V26.27C4.72724 26.7737 5.13421 27.1807 5.63795 27.1807H12.7501V20.8057H15.9376V27.1807H23.505C24.0088 27.1807 24.4157 26.7737 24.4157 26.27V17.9113H25.6509C26.1347 17.9113 26.5986 17.7207 26.9401 17.3763C27.6488 16.6648 27.6488 15.5122 26.9373 14.8007Z" fill="current"/>
</svg>
