<svg width="30" height="30" viewBox="0 0 30 30" fill="none" xmlns="http://www.w3.org/2000/svg">
<path d="M15 2.49805C7.75195 2.49805 1.875 8.20293 1.875 15.2388C1.875 22.2746 7.75195 27.9795 15 27.9795C22.248 27.9795 28.125 22.2746 28.125 15.2388C28.125 8.20293 22.248 2.49805 15 2.49805ZM15 25.8181C8.98242 25.8181 4.10156 21.0801 4.10156 15.2388C4.10156 9.39737 8.98242 4.65942 15 4.65942C21.0176 4.65942 25.8984 9.39737 25.8984 15.2388C25.8984 21.0801 21.0176 25.8181 15 25.8181Z" fill="white"/>
<path d="M13.5938 10.2335C13.5938 10.5955 13.7419 10.9427 14.0056 11.1987C14.2694 11.4547 14.627 11.5986 15 11.5986C15.373 11.5986 15.7306 11.4547 15.9944 11.1987C16.2581 10.9427 16.4062 10.5955 16.4062 10.2335C16.4062 9.87144 16.2581 9.52423 15.9944 9.26823C15.7306 9.01223 15.373 8.86841 15 8.86841C14.627 8.86841 14.2694 9.01223 14.0056 9.26823C13.7419 9.52423 13.5938 9.87144 13.5938 10.2335ZM15.7031 13.4187H14.2969C14.168 13.4187 14.0625 13.521 14.0625 13.6462V21.3816C14.0625 21.5067 14.168 21.6091 14.2969 21.6091H15.7031C15.832 21.6091 15.9375 21.5067 15.9375 21.3816V13.6462C15.9375 13.521 15.832 13.4187 15.7031 13.4187Z" fill="white"/>
</svg>
