<svg width="50" height="45" viewBox="0 0 50 45" fill="none" xmlns="http://www.w3.org/2000/svg">
<path d="M25.1447 15.1967C20.6187 15.1967 16.9251 18.5205 16.9251 22.5934C16.9251 26.6664 20.6187 29.9902 25.1447 29.9902C29.6707 29.9902 33.3643 26.6664 33.3643 22.5934C33.3643 18.5205 29.6707 15.1967 25.1447 15.1967ZM49.7972 22.5934C49.7972 19.5304 49.8281 16.4951 49.6369 13.4377C49.4458 9.88632 48.5455 6.73451 45.6597 4.1376C42.7677 1.53514 39.2715 0.730539 35.3251 0.558521C31.9214 0.386503 28.5485 0.414248 25.1509 0.414248C21.7471 0.414248 18.3742 0.386503 14.9766 0.558521C11.0302 0.730539 7.52784 1.54069 4.64205 4.1376C1.75009 6.74006 0.855994 9.88632 0.664841 13.4377C0.473688 16.5007 0.50452 19.536 0.50452 22.5934C0.50452 25.6509 0.473688 28.6918 0.664841 31.7492C0.855994 35.3006 1.75626 38.4524 4.64205 41.0493C7.534 43.6518 11.0302 44.4564 14.9766 44.6284C18.3804 44.8004 21.7533 44.7726 25.1509 44.7726C28.5546 44.7726 31.9275 44.8004 35.3251 44.6284C39.2715 44.4564 42.7739 43.6462 45.6597 41.0493C48.5517 38.4468 49.4458 35.3006 49.6369 31.7492C49.8342 28.6918 49.7972 25.6565 49.7972 22.5934ZM25.1447 33.9744C18.1461 33.9744 12.4978 28.8915 12.4978 22.5934C12.4978 16.2954 18.1461 11.2125 25.1447 11.2125C32.1434 11.2125 37.7916 16.2954 37.7916 22.5934C37.7916 28.8915 32.1434 33.9744 25.1447 33.9744ZM38.3096 13.4044C36.6755 13.4044 35.356 12.2169 35.356 10.7464C35.356 9.27594 36.6755 8.08846 38.3096 8.08846C39.9436 8.08846 41.2632 9.27594 41.2632 10.7464C41.2637 11.0956 41.1876 11.4414 41.0394 11.7641C40.8911 12.0868 40.6735 12.3799 40.3992 12.6268C40.1248 12.8737 39.799 13.0695 39.4405 13.2029C39.0819 13.3364 38.6976 13.4048 38.3096 13.4044Z" fill="white"/>
</svg>
