<svg width="114" height="92" viewBox="0 0 114 92" fill="none" xmlns="http://www.w3.org/2000/svg">
<g clip-path="url(#clip0_901_235)">
<path d="M2.34413 59.4148C5.91939 68.8473 13.1526 77.1043 22.9791 82.9704C32.8055 88.8365 44.706 92.0016 56.9287 92C88.4497 92 114 71.4035 114 46C114 20.5965 88.4498 3.44876e-06 56.9359 3.44876e-06C42.4669 -0.00451365 28.5365 4.42842 17.9654 12.4012C7.39422 20.3739 0.972305 31.2907 0 42.941L0.021375 42.9755L30.6874 53.1473C33.4532 51.6695 36.7289 50.9387 40.0425 51.06L54.0075 34.707L54.0004 34.477C54.006 29.8388 56.2912 25.3919 60.3544 22.1117C64.4177 18.8314 69.9273 16.9858 75.6746 16.9798C81.4219 16.9858 86.9315 18.8314 90.9948 22.1117C95.0581 25.3919 97.3432 29.8388 97.3489 34.477C97.3467 36.8076 96.7683 39.1145 95.6476 41.2625C94.5269 43.4105 92.8864 45.3564 90.8222 46.9864C88.758 48.6164 86.3116 49.8976 83.6262 50.7551C80.9407 51.6125 78.0703 52.029 75.183 51.98L55.2045 63.48C55.2723 65.6102 54.6791 67.7203 53.4789 69.6183C52.2786 71.5163 50.5095 73.1421 48.3323 74.3477C46.1551 75.5533 43.639 76.3006 41.0128 76.5215C38.3866 76.7424 35.7336 76.4299 33.2951 75.6125C30.9547 74.8255 28.8835 73.5953 27.2564 72.026C25.6294 70.4568 24.4943 68.5945 23.9471 66.5965L2.35125 59.4148H2.34413Z" fill="white"/>
<path d="M34.6842 72.9273C37.6527 73.8417 40.9458 73.787 43.8652 72.7748C46.7846 71.7626 49.1006 69.8725 50.3221 67.5053C51.5436 65.1381 51.5745 62.4801 50.4082 60.0948C49.2419 57.7096 46.9703 55.7847 44.0749 54.7285C41.2042 53.7618 37.9833 53.7207 35.076 54.6135L42.3649 57.0515C43.455 57.4178 44.445 57.9537 45.2784 58.6286C46.1118 59.3036 46.7723 60.1045 47.2222 60.9855C47.6721 61.8665 47.9026 62.8104 47.9005 63.7632C47.8984 64.7161 47.6637 65.6593 47.2099 66.539C46.7561 67.4187 46.092 68.2177 45.2556 68.8902C44.4192 69.5628 43.4269 70.0959 42.3352 70.459C41.2435 70.822 40.0739 71.008 38.8932 71.0063C37.7125 71.0046 36.5437 70.8153 35.4537 70.449L28.3999 68.0915C29.6835 70.2727 31.9221 71.9932 34.6842 72.9215V72.9273ZM61.2319 34.477C61.2338 37.5688 62.7555 40.5336 65.4632 42.7209C68.1708 44.9082 71.8432 46.1392 75.6743 46.1438C79.5054 46.1392 83.1777 44.9082 85.8854 42.7209C88.593 40.5336 90.1148 37.5688 90.1166 34.477C90.111 31.3873 88.5876 28.4254 85.8803 26.2406C83.1731 24.0558 79.5029 22.8263 75.6743 22.8218C71.8457 22.8263 68.1755 24.0558 65.4682 26.2406C62.761 28.4254 61.2376 31.3873 61.2319 34.477ZM75.6956 25.6968C77.1216 25.6975 78.5334 25.9249 79.8505 26.366C81.1675 26.8071 82.364 27.4532 83.3717 28.2675C84.3793 29.0817 85.1784 30.0482 85.7232 31.1116C86.268 32.1751 86.548 33.3148 86.547 34.4655C86.5461 35.6163 86.2643 36.7557 85.7178 37.8185C85.1712 38.8814 84.3706 39.847 83.3616 40.6602C82.3526 41.4734 81.1551 42.1182 79.8373 42.5579C78.5195 42.9976 77.1074 43.2235 75.6814 43.2228C72.8015 43.2213 70.0404 42.2965 68.0054 40.6521C65.9703 39.0076 64.8281 36.7781 64.83 34.454C64.8319 32.1299 65.9777 29.9016 68.0154 28.2593C70.0532 26.617 72.8158 25.6953 75.6956 25.6968Z" fill="white"/>
</g>
<defs>
<clipPath id="clip0_901_235">
<rect width="114" height="92" fill="white"/>
</clipPath>
</defs>
</svg>
