<svg width="30" height="30" viewBox="0 0 30 30" fill="none" xmlns="http://www.w3.org/2000/svg">
<path d="M15.0002 4.07495C14.5223 4.07495 14.0491 4.16908 13.6076 4.35197C13.166 4.53486 12.7649 4.80292 12.4269 5.14085C12.089 5.47878 11.8209 5.87997 11.638 6.3215C11.4552 6.76303 11.361 7.23626 11.361 7.71417C11.361 8.19207 11.4552 8.6653 11.638 9.10683C11.8209 9.54836 12.089 9.94955 12.4269 10.2875C12.7649 10.6254 13.166 10.8935 13.6076 11.0764C14.0491 11.2592 14.5223 11.3534 15.0002 11.3534C15.9654 11.3534 16.8911 10.97 17.5736 10.2875C18.256 9.60499 18.6395 8.67934 18.6395 7.71417C18.6395 6.74899 18.256 5.82334 17.5736 5.14085C16.8911 4.45837 15.9654 4.07495 15.0002 4.07495ZM23.1967 5.89274C22.4721 5.89274 21.7771 6.18059 21.2648 6.69296C20.7524 7.20534 20.4645 7.90027 20.4645 8.62488C20.4645 9.34949 20.7524 10.0444 21.2648 10.5568C21.7771 11.0692 22.4721 11.357 23.1967 11.357C23.9213 11.357 24.6162 11.0692 25.1286 10.5568C25.641 10.0444 25.9288 9.34949 25.9288 8.62488C25.9288 7.90027 25.641 7.20534 25.1286 6.69296C24.6162 6.18059 23.9213 5.89274 23.1967 5.89274ZM6.80382 5.89274C6.07921 5.89274 5.38428 6.18059 4.8719 6.69296C4.35952 7.20534 4.07167 7.90027 4.07167 8.62488C4.07167 9.34949 4.35952 10.0444 4.8719 10.5568C5.38428 11.0692 6.07921 11.357 6.80382 11.357C7.52843 11.357 8.22336 11.0692 8.73573 10.5568C9.24811 10.0444 9.53596 9.34949 9.53596 8.62488C9.53596 7.90027 9.24811 7.20534 8.73573 6.69296C8.22336 6.18059 7.52843 5.89274 6.80382 5.89274ZM9.53596 14.9871C9.53932 14.5063 9.73271 14.0463 10.0739 13.7074C10.4151 13.3686 10.8765 13.1784 11.3574 13.1785H18.6431C19.1262 13.1785 19.5895 13.3704 19.931 13.7119C20.2726 14.0535 20.4645 14.5168 20.4645 14.9999V20.4642C20.4644 21.0374 20.3747 21.6071 20.1986 22.1526C19.7953 23.3888 18.9645 24.4408 17.8554 25.1196C16.7462 25.7983 15.4315 26.0595 14.1471 25.8561C12.8628 25.6527 11.693 24.9981 10.8479 24.0099C10.0028 23.0217 9.5376 21.7645 9.53596 20.4642V14.9871ZM7.71453 14.9999C7.71453 14.3351 7.89121 13.714 8.20267 13.1785H4.07167C3.5886 13.1785 3.12531 13.3704 2.78373 13.7119C2.44214 14.0535 2.25024 14.5168 2.25024 14.9999V19.5535C2.25 20.299 2.4328 21.0331 2.7826 21.6915C3.1324 22.3499 3.63849 22.9123 4.25644 23.3293C4.87439 23.7464 5.58529 24.0054 6.3267 24.0835C7.06812 24.1616 7.81738 24.0565 8.50867 23.7773C7.98443 22.7511 7.7122 21.6147 7.71453 20.4623V14.9999ZM22.286 14.9999V20.4642C22.286 21.6572 22 22.7828 21.4918 23.7773C22.1831 24.0565 22.9324 24.1616 23.6738 24.0835C24.4152 24.0054 25.1261 23.7464 25.744 23.3293C26.362 22.9123 26.8681 22.3499 27.2179 21.6915C27.5677 21.0331 27.7505 20.299 27.7502 19.5535V14.9999C27.7502 14.5168 27.5583 14.0535 27.2168 13.7119C26.8752 13.3704 26.4119 13.1785 25.9288 13.1785H21.7978C22.1075 13.714 22.286 14.3351 22.286 14.9999Z" fill="current"/>
</svg>
