<svg width="51" height="46" viewBox="0 0 51 46" fill="none" xmlns="http://www.w3.org/2000/svg">
<path d="M46.5835 11.6468C45.0736 12.2334 43.4304 12.6556 41.7378 12.82C43.4951 11.8799 44.811 10.3945 45.4387 8.64276C43.7898 9.52616 41.9833 10.1456 40.0995 10.4736C39.3122 9.71564 38.36 9.11177 37.3022 8.69968C36.2444 8.28758 35.1036 8.07609 33.9511 8.07839C29.288 8.07839 25.5377 11.4824 25.5377 15.6597C25.5377 16.2463 25.6167 16.8329 25.745 17.3972C18.7626 17.0684 12.5352 14.0643 8.3951 9.46488C7.64073 10.6253 7.24542 11.9465 7.25028 13.2911C7.25028 15.9219 8.73558 18.2416 11.0005 19.6059C9.66576 19.5585 8.36225 19.2281 7.196 18.6415V18.7348C7.196 22.4188 10.0876 25.4718 13.9415 26.1739C13.2179 26.3432 12.4735 26.4298 11.7259 26.4317C11.1782 26.4317 10.6601 26.3828 10.137 26.3161C11.2029 29.3202 14.3067 31.5022 18.0027 31.5733C15.111 33.613 11.4891 34.8129 7.55623 34.8129C6.85059 34.8129 6.19923 34.7906 5.52319 34.7195C9.25371 36.8748 13.68 38.1191 18.4468 38.1191C33.9215 38.1191 42.3892 26.5739 42.3892 16.5529C42.3892 16.224 42.3892 15.8952 42.3645 15.5664C44.0028 14.4865 45.4387 13.1489 46.5835 11.6468Z" fill="white"/>
</svg>
